HIERARCHY
ROOT Hips
{
	OFFSET 0.00000 0.00000 0.00000
	CHANNELS 6 Xposition Yposition Zposition Zrotation Yrotation Xrotation 
	JOINT LHipJoint
	{
		OFFSET 0 0 0
		CHANNELS 3 Zrotation Yrotation Xrotation
		JOINT LeftUpLeg
		{
			OFFSET 1.52977 -1.71332 0.88991
			CHANNELS 3 Zrotation Yrotation Xrotation
			JOINT LeftLeg
			{
				OFFSET 2.23949 -6.15296 0.00000
				CHANNELS 3 Zrotation Yrotation Xrotation
				JOINT LeftFoot
				{
					OFFSET 2.68396 -7.37412 0.00000
					CHANNELS 3 Zrotation Yrotation Xrotation
					JOINT LeftToeBase
					{
						OFFSET 0.20538 -0.56428 2.52710
						CHANNELS 3 Zrotation Yrotation Xrotation
						End Site
						{
							OFFSET 0.00000 -0.00000 1.29919
						}
					}
				}
			}
		}
	}
	JOINT RHipJoint
	{
		OFFSET 0 0 0
		CHANNELS 3 Zrotation Yrotation Xrotation
		JOINT RightUpLeg
		{
			OFFSET -1.45689 -1.71333 0.88991
			CHANNELS 3 Zrotation Yrotation Xrotation
			JOINT RightLeg
			{
				OFFSET -2.36700 -6.50329 0.00000
				CHANNELS 3 Zrotation Yrotation Xrotation
				JOINT RightFoot
				{
					OFFSET -2.69814 -7.41308 0.00000
					CHANNELS 3 Zrotation Yrotation Xrotation
					JOINT RightToeBase
					{
						OFFSET -0.18734 -0.51471 2.37479
						CHANNELS 3 Zrotation Yrotation Xrotation
						End Site
						{
							OFFSET -0.00000 -0.00000 1.22113
						}
					}
				}
			}
		}
	}
	JOINT LowerBack
	{
		OFFSET 0 0 0
		CHANNELS 3 Zrotation Yrotation Xrotation
		JOINT Spine
		{
			OFFSET 0.04294 2.14638 -0.31163
			CHANNELS 3 Zrotation Yrotation Xrotation
			JOINT Spine1
			{
				OFFSET -0.00400 2.17216 0.01486
				CHANNELS 3 Zrotation Yrotation Xrotation
				JOINT Neck
				{
					OFFSET 0 0 0
					CHANNELS 3 Zrotation Yrotation Xrotation
					JOINT Neck1
					{
						OFFSET 0.03869 1.76598 0.14916
						CHANNELS 3 Zrotation Yrotation Xrotation
						JOINT Head
						{
							OFFSET -0.00760 1.75513 -0.18948
							CHANNELS 3 Zrotation Yrotation Xrotation
							End Site
							{
								OFFSET -0.00601 1.82444 -0.08310
							}
						}
					}
				}
				JOINT LeftShoulder
				{
					OFFSET 0 0 0
					CHANNELS 3 Zrotation Yrotation Xrotation
					JOINT LeftArm
					{
						OFFSET 3.73696 0.92058 0.01733
						CHANNELS 3 Zrotation Yrotation Xrotation
						JOINT LeftForeArm
						{
							OFFSET 5.22771 -0.00000 0.00000
							CHANNELS 3 Zrotation Yrotation Xrotation
							JOINT LeftHand
							{
								OFFSET 3.45251 -0.00000 0.00000
								CHANNELS 3 Zrotation Yrotation Xrotation
								JOINT LeftFingerBase
								{
									OFFSET 0 0 0
									CHANNELS 3 Zrotation Yrotation Xrotation
									JOINT LeftHandIndex1
									{
										OFFSET 0.55212 -0.00000 0.00000
										CHANNELS 3 Zrotation Yrotation Xrotation
										End Site
										{
											OFFSET 0.44513 -0.00000 0.00000
										}
									}
								}
								JOINT LThumb
								{
									OFFSET 0 0 0
									CHANNELS 3 Zrotation Yrotation Xrotation
									End Site
									{
										OFFSET 0.45193 -0.00000 0.45193
									}
								}
							}
						}
					}
				}
				JOINT RightShoulder
				{
					OFFSET 0 0 0
					CHANNELS 3 Zrotation Yrotation Xrotation
					JOINT RightArm
					{
						OFFSET -3.63819 0.83094 -0.13694
						CHANNELS 3 Zrotation Yrotation Xrotation
						JOINT RightForeArm
						{
							OFFSET -5.23980 -0.00000 -0.00000
							CHANNELS 3 Zrotation Yrotation Xrotation
							JOINT RightHand
							{
								OFFSET -3.48042 -0.00000 -0.00000
								CHANNELS 3 Zrotation Yrotation Xrotation
								JOINT RightFingerBase
								{
									OFFSET 0 0 0
									CHANNELS 3 Zrotation Yrotation Xrotation
									JOINT RightHandIndex1
									{
										OFFSET -0.61871 -0.00000 0.00000
										CHANNELS 3 Zrotation Yrotation Xrotation
										End Site
										{
											OFFSET -0.49882 -0.00000 0.00000
										}
									}
								}
								JOINT RThumb
								{
									OFFSET 0 0 0
									CHANNELS 3 Zrotation Yrotation Xrotation
									End Site
									{
										OFFSET -0.50644 -0.00000 0.50644
									}
								}
							}
						}
					}
				}
			}
		}
	}
}
MOTION
Frames: 15
Frame Time: .0083333
50.5344 17.5731 -4.1925 0 0 0 0 0 0 -21 0 0 0 0 0 0 0 0 0 0 0 0 0 0 21 0 0 0 0 0 0 0 0 0 0 0 0 0 0 0 0 0 0 0 0 0 0 -16 0 0 21 0 0 11 0 0 0 -8 0 0 0 0 0 0 0 0 0 0 0 0 0 0 0 0 0 0 0 0 8 0 0 0 0 0 0 0 0 0 0 0 0 0 0 0 0 0
50.5344 17.5731 -4.1925 -113.0830 85.9049 -113.9310 0.0000 0.0000 0.0000 -15.5119 7.6398 1.2259 0.8025 5.7175 15.9669 0.3859 2.6414 11.1209 3.4970 -11.4592 -33.8447 0.0000 0.0000 0.0000 22.3264 -0.1448 -4.2885 -2.4504 -9.7471 28.1616 0.5853 -13.4845 -3.4544 -0.0011 0.2098 -0.5765 4.3989 -1.0964 -0.5484 0.3620 -1.5069 0.8589 -2.1135 -0.7136 1.0862 0.7765 -0.3072 -8.2737 1.5464 -0.6499 12.6103 0.3122 -0.1433 5.1559 -0.0000 -0.0000 0.0000 -86.5162 4.3747 23.7610 13.9646 -22.6840 -2.8144 -0.0000 0.0000 -16.4485 16.0753 11.3494 3.2457 -7.1250 0.0000 -0.0000 -9.8608 41.5737 0.8425 -0.0000 -0.0000 0.0000 88.8018 -4.1558 19.4061 -14.1588 22.9613 -2.8898 0.0000 0.0000 4.1348 -18.2302 -9.0107 2.9530 7.1250 -0.0000 -0.0000 7.5605 -39.3507 1.0596
50.5353 17.5751 -4.1934 -113.1240 85.9179 -113.9530 0.0000 0.0000 0.0000 -15.5304 7.6402 1.2093 0.8009 5.7118 15.9506 0.3893 2.6761 11.1677 3.4537 -11.3956 -33.6259 0.0000 0.0000 0.0000 22.3074 -0.1419 -4.3173 -2.4496 -9.7457 28.1571 0.5512 -13.0419 -4.0133 -0.0133 0.7456 -2.0490 4.3858 -1.0969 -0.5500 0.3557 -1.5073 0.8449 -2.1126 -0.7144 1.0727 0.8578 -0.2962 -8.2274 1.4193 -0.6279 12.6061 0.2610 -0.1374 5.1460 0.0000 -0.0000 0.0000 -86.5266 4.3968 23.7303 13.9594 -22.6766 -2.8124 -0.0000 0.0000 -16.3985 16.0435 11.3978 3.2526 -7.1250 0.0000 -0.0000 -9.8989 41.6201 0.8344 0.0000 -0.0000 0.0000 88.8215 -4.1952 19.3974 -14.1935 23.0106 -2.9033 0.0000 0.0000 4.1585 -18.3641 -9.0091 2.9757 7.1250 -0.0000 -0.0000 7.4451 -39.3594 1.0416
50.5363 17.5776 -4.1947 -112.7960 85.8835 -113.6140 0.0000 0.0000 0.0000 -15.4914 7.6244 1.1864 0.8022 5.7164 15.9639 0.3927 2.6993 11.2154 3.4357 -11.3691 -33.5349 0.0000 0.0000 0.0000 22.3514 -0.1347 -4.3230 -2.4460 -9.7390 28.1356 0.5829 -13.4393 -3.6243 -0.0057 0.4855 -1.3342 4.4173 -1.1087 -0.5881 0.3701 -1.5260 0.8677 -2.1168 -0.7221 1.1160 0.8532 -0.2685 -8.1980 1.4333 -0.5910 12.5625 0.2686 -0.1194 5.1274 0.0000 0.0000 0.0000 -86.5383 4.3500 23.7105 13.9349 -22.6416 -2.8030 -0.0000 0.0000 -16.3981 16.0355 11.4170 3.2562 -7.1250 0.0000 -0.0000 -9.9099 41.6389 0.8307 0.0000 0.0000 0.0000 88.7992 -4.1585 19.4991 -14.2111 23.0357 -2.9102 0.0000 0.0000 4.0847 -18.4249 -8.9938 2.9812 7.1250 -0.0000 -0.0000 7.3903 -39.3483 1.0359
50.5368 17.5796 -4.1955 -112.7540 85.8763 -113.5740 0.0000 0.0000 0.0000 -15.4841 7.6212 1.1754 0.8031 5.7194 15.9725 0.3969 2.7324 11.2735 3.4276 -11.3571 -33.4938 0.0000 0.0000 0.0000 22.3573 -0.1491 -4.3230 -2.4430 -9.7335 28.1180 0.5808 -13.4111 -3.6696 -0.0047 0.4444 -1.2212 4.4233 -1.1082 -0.5797 0.3684 -1.5249 0.8724 -2.1217 -0.7215 1.1159 0.8284 -0.2818 -8.2026 1.4595 -0.6091 12.5830 0.2796 -0.1273 5.1348 0.0000 -0.0000 0.0000 -86.5249 4.3610 23.7916 13.9477 -22.6599 -2.8079 -0.0000 0.0000 -16.4462 16.0283 11.4235 3.2565 -7.1250 0.0000 -0.0000 -9.9176 41.6449 0.8299 0.0000 -0.0000 0.0000 88.8177 -4.1731 19.5263 -14.2509 23.0923 -2.9258 0.0000 0.0000 4.0362 -18.4271 -9.1387 3.0291 7.1250 -0.0000 -0.0000 7.4111 -39.4993 1.0111
50.5374 17.5818 -4.1965 -112.6720 85.8636 -113.4900 0.0000 0.0000 0.0000 -15.4718 7.6106 1.1542 0.8051 5.7266 15.9932 0.4006 2.7619 11.3239 3.4120 -11.3339 -33.4146 0.0000 0.0000 0.0000 22.3711 -0.1545 -4.3217 -2.4387 -9.7257 28.0928 0.5877 -13.4971 -3.6070 -0.0035 0.3802 -1.0446 4.4353 -1.1118 -0.5833 0.3705 -1.5302 0.8795 -2.1265 -0.7237 1.1247 0.8207 -0.2818 -8.1927 1.4631 -0.6083 12.5834 0.2820 -0.1270 5.1333 0.0000 -0.0000 0.0000 -86.5230 4.3561 23.8278 13.9489 -22.6616 -2.8084 -0.0000 0.0000 -16.4631 16.0097 11.4262 3.2533 -7.1250 0.0000 -0.0000 -9.9345 41.6459 0.8311 0.0000 -0.0000 0.0000 88.8244 -4.1766 19.5648 -14.2820 23.1364 -2.9380 0.0000 0.0000 3.9981 -18.4695 -9.2008 3.0570 7.1250 -0.0000 -0.0000 7.3844 -39.5672 0.9950
50.5380 17.5841 -4.1974 -112.6290 85.8520 -113.4440 0.0000 0.0000 0.0000 -15.4610 7.6000 1.1353 0.8068 5.7325 16.0102 0.4048 2.7939 11.3814 3.3984 -11.3136 -33.3450 0.0000 0.0000 0.0000 22.3848 -0.1547 -4.3191 -2.4351 -9.7190 28.0715 0.5979 -13.6246 -3.4973 -0.0019 0.2786 -0.7654 4.4449 -1.1153 -0.5843 0.3719 -1.5352 0.8864 -2.1306 -0.7258 1.1318 0.8075 -0.2833 -8.1827 1.4761 -0.6101 12.5848 0.2881 -0.1276 5.1321 -0.0000 -0.0000 0.0000 -86.5205 4.3525 23.8719 13.9540 -22.6689 -2.8104 -0.0000 0.0000 -16.4874 15.9975 11.4200 3.2490 -7.1250 0.0000 -0.0000 -9.9439 41.6384 0.8337 -0.0000 -0.0000 0.0000 88.8324 -4.1806 19.5990 -14.3119 23.1788 -2.9498 0.0000 0.0000 3.9664 -18.5012 -9.2621 3.0828 7.1250 -0.0000 -0.0000 7.3668 -39.6335 0.9805
50.5383 17.5864 -4.1983 -112.6300 85.8424 -113.4420 0.0000 0.0000 0.0000 -15.4532 7.5868 1.1151 0.8086 5.7387 16.0281 0.4092 2.8283 11.4420 3.3854 -11.2943 -33.2789 0.0000 0.0000 0.0000 22.3965 -0.1504 -4.3148 -2.4313 -9.7119 28.0486 0.6072 -13.7391 -3.4081 -0.0010 0.1999 -0.5492 4.4525 -1.1196 -0.5830 0.3714 -1.5411 0.8927 -2.1355 -0.7284 1.1369 0.7975 -0.2861 -8.1772 1.4867 -0.6137 12.5898 0.2928 -0.1290 5.1328 -0.0000 -0.0000 0.0000 -86.5174 4.3495 23.9131 13.9629 -22.6816 -2.8138 -0.0000 0.0000 -16.5087 15.9771 11.4105 3.2419 -7.1250 0.0000 -0.0000 -9.9597 41.6268 0.8380 -0.0000 -0.0000 0.0000 88.8438 -4.1852 19.6278 -14.3412 23.2204 -2.9613 0.0000 0.0000 3.9448 -18.5284 -9.3265 3.1089 7.1250 -0.0000 -0.0000 7.3537 -39.7028 0.9661
50.5386 17.5888 -4.1991 -112.6460 85.8342 -113.4540 0.0000 0.0000 0.0000 -15.4462 7.5730 1.0910 0.8105 5.7452 16.0469 0.4140 2.8583 11.5077 3.3746 -11.2780 -33.2233 0.0000 0.0000 0.0000 22.4087 -0.1354 -4.3100 -2.4274 -9.7047 28.0256 0.6160 -13.8480 -3.3338 -0.0005 0.1458 -0.4006 4.4571 -1.1250 -0.5832 0.3705 -1.5485 0.8988 -2.1391 -0.7319 1.1426 0.7901 -0.2872 -8.1745 1.4969 -0.6154 12.5968 0.2971 -0.1294 5.1345 -0.0000 0.0000 0.0000 -86.5150 4.3451 23.9473 13.9741 -22.6977 -2.8181 -0.0000 0.0000 -16.5283 15.9546 11.4007 3.2344 -7.1250 0.0000 -0.0000 -9.9773 41.6147 0.8425 -0.0000 0.0000 0.0000 88.8558 -4.1884 19.6558 -14.3686 23.2592 -2.9721 0.0000 0.0000 3.9309 -18.5449 -9.3944 3.1343 7.1250 -0.0000 -0.0000 7.3502 -39.7749 0.9526
50.5388 17.5911 -4.1997 -112.6770 85.8297 -113.4770 0.0000 0.0000 0.0000 -15.4424 7.5577 1.0639 0.8125 5.7522 16.0672 0.4190 2.8837 11.5756 3.3663 -11.2656 -33.1809 0.0000 0.0000 0.0000 22.4193 -0.1080 -4.3028 -2.4235 -9.6974 28.0023 0.6250 -13.9555 -3.2767 -0.0002 0.0920 -0.2529 4.4582 -1.1290 -0.5852 0.3676 -1.5541 0.9026 -2.1428 -0.7345 1.1471 0.7870 -0.2886 -8.1665 1.5038 -0.6176 12.6033 0.2996 -0.1300 5.1352 -0.0000 0.0000 0.0000 -86.5124 4.3432 23.9779 13.9874 -22.7167 -2.8232 -0.0000 0.0000 -16.5441 15.9361 11.3929 3.2283 -7.1250 0.0000 -0.0000 -9.9919 41.6050 0.8462 -0.0000 0.0000 0.0000 88.8699 -4.1966 19.6840 -14.3956 23.2974 -2.9828 0.0000 0.0000 3.9087 -18.5488 -9.4885 3.1660 7.1250 -0.0000 -0.0000 7.3619 -39.8732 0.9362
50.5389 17.5933 -4.2002 -112.6900 85.8243 -113.4800 0.0000 0.0000 0.0000 -15.4347 7.5459 1.0308 0.8148 5.7599 16.0894 0.4240 2.8930 11.6458 3.3624 -11.2597 -33.1609 0.0000 0.0000 0.0000 22.4339 -0.0687 -4.2946 -2.4194 -9.6899 27.9783 0.6308 -14.0193 -3.2843 -0.0002 0.0836 -0.2296 4.4585 -1.1345 -0.5910 0.3652 -1.5618 0.9070 -2.1458 -0.7381 1.1543 0.7897 -0.2880 -8.1686 1.5058 -0.6174 12.6170 0.2998 -0.1295 5.1398 -0.0000 0.0000 0.0000 -86.5097 4.3396 23.9985 14.0032 -22.7392 -2.8293 -0.0000 0.0000 -16.5579 15.9192 11.3865 3.2229 -7.1250 0.0000 -0.0000 -10.0053 41.5968 0.8494 -0.0000 0.0000 0.0000 88.8850 -4.2015 19.7190 -14.4199 23.3318 -2.9924 0.0000 0.0000 3.8807 -18.5411 -9.6012 3.2018 7.1250 -0.0000 -0.0000 7.3869 -39.9899 0.9181
50.5392 17.5954 -4.2006 -112.7090 85.8182 -113.4870 0.0000 0.0000 0.0000 -15.4238 7.5393 0.9933 0.8171 5.7681 16.1131 0.4291 2.8816 11.7193 3.3632 -11.2610 -33.1652 0.0000 0.0000 0.0000 22.4503 -0.0242 -4.2842 -2.4153 -9.6822 27.9536 0.6362 -14.0777 -3.3023 -0.0001 0.0655 -0.1801 4.4597 -1.1390 -0.6000 0.3622 -1.5684 0.9108 -2.1498 -0.7412 1.1627 0.7960 -0.2885 -8.1737 1.5037 -0.6187 12.6352 0.2981 -0.1296 5.1463 -0.0000 -0.0000 0.0000 -86.5060 4.3349 24.0165 14.0195 -22.7625 -2.8356 -0.0000 0.0000 -16.5683 15.9089 11.3859 3.2206 -7.1250 0.0000 -0.0000 -10.0142 41.5954 0.8505 -0.0000 -0.0000 0.0000 88.9012 -4.2069 19.7563 -14.4416 23.3625 -3.0010 0.0000 0.0000 3.8391 -18.5312 -9.7281 3.2418 7.1250 -0.0000 -0.0000 7.4163 -40.1213 0.8976
50.5396 17.5973 -4.2010 -112.7660 85.8150 -113.5300 0.0000 0.0000 0.0000 -15.4140 7.5392 0.9512 0.8196 5.7768 16.1380 0.4342 2.8478 11.7935 3.3676 -11.2676 -33.1878 0.0000 0.0000 0.0000 22.4634 0.0233 -4.2719 -2.4110 -9.6743 27.9283 0.6413 -14.1305 -3.3338 -0.0000 0.0383 -0.1051 4.4566 -1.1442 -0.6116 0.3577 -1.5760 0.9142 -2.1532 -0.7448 1.1721 0.8055 -0.2881 -8.1794 1.4986 -0.6188 12.6538 0.2949 -0.1292 5.1530 0.0000 0.0000 0.0000 -86.5006 4.3305 24.0332 14.0364 -22.7867 -2.8422 -0.0000 0.0000 -16.5841 15.9114 11.3872 3.2214 -7.1250 0.0000 -0.0000 -10.0124 41.5969 0.8500 0.0000 0.0000 0.0000 88.9180 -4.2120 19.7922 -14.4603 23.3890 -3.0084 0.0000 0.0000 3.8006 -18.5166 -9.8535 3.2803 7.1250 -0.0000 -0.0000 7.4496 -40.2505 0.8779
50.5402 17.5990 -4.2014 -112.8830 85.8132 -113.6360 0.0000 0.0000 0.0000 -15.4048 7.5477 0.9103 0.8222 5.7856 16.1637 0.4392 2.7943 11.8693 3.3734 -11.2762 -33.2173 0.0000 0.0000 0.0000 22.4707 0.0589 -4.2566 -2.4068 -9.6664 27.9030 0.6455 -14.1719 -3.3691 -0.0000 0.0115 -0.0315 4.4547 -1.1489 -0.6255 0.3507 -1.5832 0.9204 -2.1598 -0.7479 1.1857 0.8106 -0.2913 -8.1871 1.4972 -0.6238 12.6716 0.2934 -0.1312 5.1599 -0.0000 -0.0000 0.0000 -86.4926 4.3218 24.0510 14.0526 -22.8098 -2.8485 -0.0000 0.0000 -16.5989 15.9104 11.3903 3.2221 -7.1250 0.0000 -0.0000 -10.0140 41.6000 0.8493 -0.0000 -0.0000 0.0000 88.9376 -4.2147 19.8202 -14.4770 23.4124 -3.0150 0.0000 0.0000 3.7660 -18.5140 -9.9645 3.3163 7.1250 -0.0000 -0.0000 7.4706 -40.3658 0.8590
50.5409 17.6004 -4.2018 -113.0770 85.8154 -113.8220 0.0000 0.0000 0.0000 -15.3993 7.5655 0.8672 0.8248 5.7943 16.1887 0.4443 2.7234 11.9489 3.3794 -11.2853 -33.2481 0.0000 0.0000 0.0000 22.4698 0.0865 -4.2409 -2.4026 -9.6586 27.8781 0.6489 -14.2049 -3.4078 -0.0000 -0.0189 0.0520 4.4481 -1.1538 -0.6403 0.3415 -1.5905 0.9266 -2.1661 -0.7513 1.1997 0.8154 -0.2947 -8.1898 1.4963 -0.6290 12.6873 0.2919 -0.1333 5.1652 0.0000 0.0000 0.0000 -86.4830 4.3129 24.0729 14.0680 -22.8318 -2.8544 -0.0000 0.0000 -16.6205 15.9198 11.3974 3.2261 -7.1250 0.0000 -0.0000 -10.0072 41.6082 0.8467 0.0000 0.0000 0.0000 88.9585 -4.2191 19.8407 -14.4911 23.4324 -3.0207 0.0000 0.0000 3.7383 -18.5191 -10.0559 3.3473 7.1250 -0.0000 -0.0000 7.4814 -40.4613 0.8426
